<svg id="Layer_1" data-name="Layer 1" xmlns="http://www.w3.org/2000/svg" viewBox="0 0 225 54"><defs><style>.cls-1{fill:#8124bb;}</style></defs><path class="cls-1" d="M68.5,33.43H61.28V14.58H57.65V36.9H70.89A11.05,11.05,0,0,1,68.5,33.43Z"/><path class="cls-1" d="M70.27,28.94a8.21,8.21,0,1,1,16.42,0,12.14,12.14,0,0,1-.11,1.59H73.89a4.72,4.72,0,0,0,4.73,3.55,5.81,5.81,0,0,0,4.41-2l2.41,2.12C80.2,40,70.27,37,70.27,28.94ZM83,27.51c-1.15-4.84-8.18-4.78-9.13,0Z"/><path class="cls-1" d="M95.9,37.21A8,8,0,0,1,88,29c0-4.31,3.43-8.3,7.86-8.3a6.14,6.14,0,0,1,5.26,2.77V21h3.46V35.08c0,5.33-2.69,8.8-8.23,8.8a8.58,8.58,0,0,1-7.94-4.76l3-1.59a5.14,5.14,0,0,0,4.91,3.12c3.5,0,4.73-2.4,4.77-5.57v-.66A6.16,6.16,0,0,1,95.9,37.21Zm.53-3.27a5,5,0,1,0-5-5A4.93,4.93,0,0,0,96.43,33.94Z"/><path class="cls-1" d="M114.33,37.21A8,8,0,0,1,106.47,29c0-4.31,3.42-8.3,7.86-8.3a6.16,6.16,0,0,1,5.26,2.77V21H123V36.9h-3.45V34.42A6.16,6.16,0,0,1,114.33,37.21Zm.53-3.27a5,5,0,1,0-5-5A4.92,4.92,0,0,0,114.86,33.94Z"/><path class="cls-1" d="M126.4,14.58h3.45V36.9H126.4Z"/><path class="cls-1" d="M44.38,9.45l-.78-.36A44,44,0,0,0,7,9.09l-.78.36v1.28A44,44,0,0,0,24.49,46.37l.79.56.79-.56A44,44,0,0,0,44.39,10.73ZM25.29,43.57h0V7.8h0a40.77,40.77,0,0,1,16.4,3.4A41.21,41.21,0,0,1,25.29,43.57Z"/><path class="cls-1" d="M140,33.73c1.7,0,4.8-.7,4.8-2.9,0-4.8-11.9-2.4-11.9-10.4,0-4.6,4.6-6.3,8.5-6.3a16.85,16.85,0,0,1,6.6,1.6l-1.3,3.2a14.24,14.24,0,0,0-5.3-1.3c-1.9,0-4.8.4-4.8,2.9,0,4.9,11.9,2.4,11.9,10.4,0,4.5-4.6,6.4-8.5,6.4a19.58,19.58,0,0,1-7.1-1.8l1.4-3.2A19,19,0,0,0,140,33.73Z"/><path class="cls-1" d="M154.23,23.53a4.79,4.79,0,0,1,4.7-3c4.2,0,5.8,3.6,5.8,7.3v9h-3.5v-8.9c0-2.3-1.1-4.1-3.5-4.1s-3.5,1.8-3.5,4.1v8.9h-3.5V14.43h3.5Z"/><path class="cls-1" d="M166.93,14.43h3.5v4h-3.5Zm0,6.4h3.5v16h-3.5Z"/><path class="cls-1" d="M172.13,28.83a8.2,8.2,0,1,1,16.4,0,8.6,8.6,0,0,1-.1,1.6h-12.7a4.72,4.72,0,0,0,4.7,3.6,5.71,5.71,0,0,0,4.4-2l2.4,2.1C182.13,39.83,172.13,36.93,172.13,28.83Zm12.8-1.4c-1.2-4.8-8.2-4.8-9.1,0Z"/><path class="cls-1" d="M190.43,14.43h3.5v22.3h-3.5Z"/><path class="cls-1" d="M203,37.13a8.07,8.07,0,0,1-7.9-8.3c0-4.3,3.4-8.3,7.9-8.3a6.33,6.33,0,0,1,5.3,2.8v-8.9h3.5v22.3h-3.5v-2.5A6.19,6.19,0,0,1,203,37.13Zm.5-3.3a4.87,4.87,0,0,0,4.9-5,4.93,4.93,0,0,0-4.9-5,5,5,0,0,0,0,10Z"/><path class="cls-1" d="M216.33,14.93h-.8v2h-.4v-2h-.8v-.4h2.4l.9,1.2.9-1.2h.3v2.4h-.4v-1.6l-.8,1.1-.8-1.1v1.6h-.4l-.1-2Z"/></svg>